<svg xmlns="http://www.w3.org/2000/svg" viewBox="0 0 486 486"><defs><style>.cls-1{fill:#b7dbe5;}.cls-2,.cls-3{fill:none;stroke:#fff;stroke-miterlimit:10;}.cls-2{stroke-width:4px;}.cls-3{stroke-width:2px;}</style></defs><title>Asset 2</title><g id="Layer_2" data-name="Layer 2"><g id="Layer_1-2" data-name="Layer 1"><path class="cls-1" d="M223.93,182.42l1.35,23.93c-10.65-2.07-18.07-6.71-18.07-12.11C207.21,189.08,214,184.61,223.93,182.42Z" transform="translate(-0.25 -0.25)"/><path class="cls-1" d="M251.62,182.42c9.92,2.19,16.72,6.66,16.72,11.82,0,5.4-7.42,10-18.07,12.11Z" transform="translate(-0.25 -0.25)"/><path class="cls-1" d="M243.25.25c134.2,0,243,108.79,243,243s-108.8,243-243,243-243-108.8-243-243S109,.25,243.25.25Zm94.34,201.28a2.76,2.76,0,0,0-3.35-3.87c-7.58,2.57-16.67,5.61-26.82,8.55v-12c0-11.44-23.64-21-55.15-23.27L255,123.42a34.66,34.66,0,1,0-34.35,0h0L223.28,171c-31.51,2.28-55.15,11.83-55.15,23.27h0v111.6h0c0,12.17,26.71,22.19,61.18,23.61,0,0,1,.05,2.92.1l5.54,98.27,5.55-98.18c22.13-.23,64.74-2.87,85-19a2.69,2.69,0,0,0,1-2.29C328.67,297.47,325.05,225.9,337.59,201.53Z" transform="translate(-0.25 -0.25)"/><path class="cls-2" d="M223.28,171c-31.51,2.28-55.15,11.83-55.15,23.27h0c0,12.85,29.85,23.33,67.15,23.77h.45" transform="translate(-0.25 -0.25)"/><path class="cls-2" d="M252.27,171c31.51,2.28,55.15,11.83,55.15,23.27,0,7.36-9.76,13.93-25.11,18.29" transform="translate(-0.25 -0.25)"/><path class="cls-2" d="M168.13,305.86c0,12.17,26.71,22.19,61.18,23.61,0,0,1,.05,2.92.1,2.43.07,6.28.14,11.09.09,22.13-.23,64.74-2.87,85-19a2.69,2.69,0,0,0,1-2.29c-.63-10.88-4.25-82.45,8.29-106.82a2.76,2.76,0,0,0-3.35-3.87c-7.58,2.57-16.67,5.61-26.82,8.55-7.8,2.26-16.24,4.45-25.11,6.32a237.39,237.39,0,0,1-47,5.49c-.55,0-1.09,0-1.64,0" transform="translate(-0.25 -0.25)"/><polyline class="cls-2" points="307.17 206.1 307.17 205.96 307.17 193.99"/><polyline class="cls-2" points="167.88 194 167.88 305.6 167.88 305.61"/><path class="cls-2" d="M220.6,123.42A34.69,34.69,0,1,1,237.77,128a34.65,34.65,0,0,1-17.17-4.55" transform="translate(-0.25 -0.25)"/><line class="cls-2" x1="237.52" y1="427.59" x2="231.98" y2="329.32"/><polyline class="cls-2" points="220.35 123.15 220.35 123.16 220.35 123.17 220.35 123.18 223.03 170.72 223.68 182.17 225.03 206.1"/><polyline class="cls-2" points="243.07 329.32 243.07 329.41 237.52 427.59"/><polyline class="cls-2" points="254.7 123.15 254.7 123.17 252.02 170.72 251.37 182.17 250.02 206.1"/><path class="cls-2" d="M223.93,182.42c-9.92,2.19-16.72,6.66-16.72,11.82,0,5.4,7.42,10,18.07,12.11a67.88,67.88,0,0,0,25,0c10.65-2.07,18.07-6.71,18.07-12.11,0-5.16-6.8-9.63-16.72-11.82" transform="translate(-0.25 -0.25)"/><path class="cls-3" d="M217.35,239.08V244" transform="translate(-0.25 -0.25)"/><path class="cls-3" d="M217.35,258.85v4.9" transform="translate(-0.25 -0.25)"/><path class="cls-3" d="M217.35,279.31v4.91" transform="translate(-0.25 -0.25)"/><path class="cls-3" d="M217.35,300.51v4.9" transform="translate(-0.25 -0.25)"/><path class="cls-3" d="M295.94,234.18v4.9" transform="translate(-0.25 -0.25)"/><path class="cls-3" d="M295.94,253.94v4.91" transform="translate(-0.25 -0.25)"/><path class="cls-3" d="M295.94,274.41v4.9" transform="translate(-0.25 -0.25)"/><path class="cls-3" d="M295.94,295.61v4.9" transform="translate(-0.25 -0.25)"/></g></g></svg>